<svg xmlns="http://www.w3.org/2000/svg" width="300" height="300" viewBox="0 0 300 300"><title>bitcoinArtboard 1</title><g id="b2581f61-9b4c-4929-a927-2e7511f15dc6" data-name="Layer 2 copy 4"><rect width="300" height="300" fill="#f7931a"/></g><g id="b89aef90-5ad6-4313-bf4f-68141b61a311" data-name="bitcoin"><path d="M187.519,140.17c1.54-10.47-6.4-16.13-17.36-19.89l3.57-14.22-8.62-2.15-3.45,13.85c-2.28-.55-4.62-1.11-6.96-1.6l3.45-13.91-8.62-2.15-3.51,14.16q-2.865-.645-5.54-1.29v-.06l-11.94-2.96-2.28,9.24s6.28,1.45,6.28,1.54c3.51.86,4.12,3.2,4,5.05l-4.06,16.19a3.665,3.665,0,0,1,.92.31,4.33,4.33,0,0,1-.92-.25l-5.66,22.66a3.136,3.136,0,0,1-3.94,2.03c.06.12-6.28-1.54-6.28-1.54l-4.31,9.91,11.27,2.83c2.09.55,4.12,1.05,6.16,1.6l-3.57,14.35,8.62,2.15,3.57-14.22c2.34.62,4.68,1.23,6.9,1.79l-3.51,14.16,8.62,2.15,3.57-14.35c14.78,2.77,25.86,1.66,30.48-11.7,3.76-10.71-.18-16.93-7.94-20.99,5.73-1.29,9.97-5.05,11.08-12.68Zm-19.76,27.71c-2.65,10.71-20.75,4.93-26.6,3.45l4.74-19.02c5.85,1.48,24.69,4.37,21.86,15.58Zm2.71-27.89c-2.46,9.79-17.48,4.8-22.35,3.57l4.31-17.24C157.289,127.55,172.989,129.83,170.469,139.99Z" fill="#fff"/></g></svg>