<svg xmlns="http://www.w3.org/2000/svg" xmlns:xlink="http://www.w3.org/1999/xlink" width="300" height="300" viewBox="0 0 300 300"><defs><clipPath id="fe77d17f-0697-43c4-a499-356d2ca48807"><path id="eadb92d7-feb0-491a-a291-ba4ac71ac051" data-name="SVGID" d="M229.48,150a46.605,46.605,0,1,0,0,.01Z" fill="none"/></clipPath><clipPath id="b3b618b1-a335-4ae6-a669-9e725fa3feed"><path id="b19a7677-bcd2-4e1a-9956-894ae95b2f1a" data-name="SVGID" d="M163.73,150a46.605,46.605,0,1,1-46.6-46.6,46.613,46.613,0,0,1,46.61,46.61Z" fill="none"/></clipPath></defs><title>gbpusdArtboard 1</title><g id="bfc4737a-7c3e-41d3-9457-ac8a5cdd8662" data-name="forex-bg"><rect width="300" height="300" fill="#f0f0f0"/></g><g id="ecc1c96c-0115-4694-b234-88c9cffa665e" data-name="gbpusd"><g clip-path="url(#fe77d17f-0697-43c4-a499-356d2ca48807)"><path d="M252.78,110.565v7.17H183.8v-7.17Zm0,14.34v7.17H183.8v-7.17Zm0,14.34v7.17H183.8v-7.17Zm0,14.34v7.17H112.96v-7.17Zm0,14.34v7.17H112.96v-7.17Zm0,14.34v7.17H112.96v-7.17Z" fill="#f4f4f4" fill-rule="evenodd"/><path d="M112.96,103.4H252.78v7.17H112.96V103.4Zm0,86.04H252.78v7.17H112.96v-7.17Zm0-14.34H252.78v7.17H112.96V175.1Zm0-14.34H252.78v7.17H112.96v-7.17Zm0-14.34H252.78v7.17H112.96v-7.17Zm0-14.34H252.78v7.17H112.96v-7.17Zm0-14.34H252.78v7.17H112.96v-7.17Z" fill="#ff1612" fill-rule="evenodd"/><polygon points="112.96 103.395 183.81 103.395 183.81 153.585 112.96 153.585 112.96 103.395 112.96 103.395" fill="#0437a0" fill-rule="evenodd"/><path d="M177.9,105.875l.64,1.99h2.09l-1.69,1.22.65,1.99-1.69-1.23-1.69,1.23.65-1.99-1.69-1.22h2.09l.64-1.98h0Zm-59.04,20.01.64,1.99h2.09l-1.69,1.22.65,1.99-1.69-1.23-1.69,1.23.65-1.99-1.69-1.22h2.09l.64-1.99Zm5.9,5,.64,1.99h2.09l-1.69,1.22.65,1.99-1.69-1.23-1.69,1.23.65-1.99-1.69-1.22h2.09l.64-1.98h0Zm47.23,0,.64,1.99h2.09l-1.69,1.22.65,1.99-1.69-1.23-1.69,1.23.65-1.99-1.69-1.22h2.09l.64-1.98h0Zm-11.81,0,.64,1.99h2.09l-1.69,1.22.65,1.99-1.69-1.23-1.69,1.23.65-1.99-1.69-1.22h2.09l.64-1.98h0Zm-11.81,0,.64,1.99h2.09l-1.69,1.22.65,1.99-1.69-1.23-1.69,1.23.65-1.99-1.69-1.22h2.09l.64-1.98h0Zm-11.81,0,.64,1.99h2.09l-1.69,1.22.65,1.99-1.69-1.23-1.69,1.23.65-1.99-1.69-1.22h2.09l.64-1.98h0Zm-5.9-5,.64,1.99h2.09l-1.69,1.22.65,1.99-1.69-1.23-1.69,1.23.65-1.99-1.69-1.22h2.09l.64-1.99Zm35.42,0,.64,1.99h2.09l-1.69,1.22.65,1.99-1.69-1.23-1.69,1.23.65-1.99-1.69-1.22h2.09l.64-1.99Zm11.81,0,.64,1.99h2.09l-1.69,1.22.65,1.99-1.69-1.23-1.69,1.23.65-1.99-1.69-1.22h2.09l.64-1.99Zm0,10.01.64,1.99h2.09l-1.69,1.22.65,1.99-1.69-1.23-1.69,1.23.65-1.99-1.69-1.22h2.09l.64-1.98h0Zm-11.81,0,.64,1.99h2.09l-1.69,1.22.65,1.99-1.69-1.23-1.69,1.23.65-1.99-1.69-1.22h2.09l.64-1.98h0Zm-35.42,0,.64,1.99h2.09l-1.69,1.22.65,1.99-1.69-1.23-1.69,1.23.65-1.99-1.69-1.22h2.09l.64-1.98h0Zm-5.9,5,.64,1.99h2.09l-1.69,1.22.65,1.99-1.69-1.23-1.69,1.23.65-1.99-1.69-1.22h2.09l.64-1.98h0Zm47.23,0,.64,1.99h2.09l-1.69,1.22.65,1.99-1.69-1.23-1.69,1.23.65-1.99-1.69-1.22h2.09l.64-1.98h0Zm-11.81,0,.64,1.99h2.09l-1.69,1.22.65,1.99-1.69-1.23-1.69,1.23.65-1.99-1.69-1.22h2.09l.64-1.98h0Zm-11.81,0,.64,1.99h2.09l-1.69,1.22.65,1.99-1.69-1.23-1.69,1.23.65-1.99-1.69-1.22h2.09l.64-1.98h0Zm-11.81,0,.64,1.99h2.09l-1.69,1.22.65,1.99-1.69-1.23-1.69,1.23.65-1.99-1.69-1.22h2.09l.64-1.98h0Zm-17.71-5,.64,1.99h2.09l-1.69,1.22.65,1.99-1.69-1.23-1.69,1.23.65-1.99-1.69-1.22h2.09l.64-1.98h0Zm0,10.01.64,1.99h2.09l-1.69,1.22.65,1.98-1.69-1.23-1.69,1.23.65-1.98-1.69-1.23h2.09l.64-1.98Zm11.81,0,.64,1.99h2.09l-1.69,1.22.65,1.98-1.69-1.23-1.69,1.23.65-1.98-1.69-1.23h2.09l.64-1.98Zm35.42,0,.64,1.99h2.09l-1.69,1.22.65,1.98-1.69-1.23-1.69,1.23.65-1.98-1.69-1.23h2.09l.64-1.98Zm11.81,0,.64,1.99h2.09l-1.69,1.22.65,1.98-1.69-1.23-1.69,1.23.65-1.98-1.69-1.23h2.09l.64-1.98Zm-53.14-25.02.64,1.99h2.09l-1.69,1.22.65,1.99-1.69-1.23-1.69,1.23.65-1.99-1.69-1.22h2.09l.64-1.98h0Zm0-10.01.64,1.99h2.09l-1.69,1.22.65,1.98-1.69-1.23-1.69,1.23.65-1.98-1.69-1.23h2.09l.64-1.98Zm47.23,0,.64,1.99h2.09l-1.69,1.22.65,1.98-1.69-1.23-1.69,1.23.65-1.98-1.69-1.23h2.09l.64-1.98Zm-11.81,0,.64,1.99h2.09l-1.69,1.22.65,1.98-1.69-1.23-1.69,1.23.65-1.98-1.69-1.23h2.09l.64-1.98Zm-11.81,0,.64,1.99h2.09l-1.69,1.22.65,1.98-1.69-1.23-1.69,1.23.65-1.98-1.69-1.23h2.09l.64-1.98Zm-11.81,0,.64,1.99h2.09l-1.69,1.22.65,1.98-1.69-1.23-1.69,1.23.65-1.98-1.69-1.23h2.09l.64-1.98Zm-17.71,5,.64,1.99h2.09l-1.69,1.22.65,1.99-1.69-1.23-1.69,1.23.65-1.99-1.69-1.22h2.09l.64-1.98h0Zm53.14,5,.64,1.99h2.09l-1.69,1.22.65,1.99-1.69-1.23-1.69,1.23.65-1.99-1.69-1.22h2.09l.64-1.98h0Zm-11.81,0,.64,1.99h2.09l-1.69,1.22.65,1.99-1.69-1.23-1.69,1.23.65-1.99-1.69-1.22h2.09l.64-1.98h0Zm-11.81,0,.64,1.99h2.09l-1.69,1.22.65,1.99-1.69-1.23-1.69,1.23.65-1.99-1.69-1.22h2.09l.64-1.98h0Zm-11.81,0,.64,1.99h2.09l-1.69,1.22.65,1.99-1.69-1.23-1.69,1.23.65-1.99-1.69-1.22h2.09l.64-1.98h0Zm-5.9-5,.64,1.99h2.09l-1.69,1.22.65,1.99-1.69-1.23-1.69,1.23.65-1.99-1.69-1.22h2.09l.64-1.98h0Zm0-10.01.64,1.99h2.09l-1.69,1.22.65,1.99-1.69-1.23-1.69,1.23.65-1.99-1.69-1.22h2.09l.64-1.98h0Zm-11.81,0,.64,1.99h2.09l-1.69,1.22.65,1.99-1.69-1.23-1.69,1.23.65-1.99-1.69-1.22h2.09l.64-1.98h0Zm23.62,40.03.64,1.99h2.09l-1.69,1.22.65,1.98-1.69-1.23-1.69,1.23.65-1.98-1.69-1.23h2.09l.64-1.98Zm0-10.01.64,1.99h2.09l-1.69,1.22.65,1.99-1.69-1.23-1.69,1.23.65-1.99-1.69-1.22h2.09l.64-1.98h0Zm0-10.01.64,1.99h2.09l-1.69,1.22.65,1.99-1.69-1.23-1.69,1.23.65-1.99-1.69-1.22h2.09l.64-1.99Zm0-10.01.64,1.99h2.09l-1.69,1.22.65,1.99-1.69-1.23-1.69,1.23.65-1.99-1.69-1.22h2.09l.64-1.98h0Zm0-10.01.64,1.99h2.09l-1.69,1.22.65,1.99-1.69-1.23-1.69,1.23.65-1.99-1.69-1.22h2.09l.64-1.98h0Zm11.81,40.03.64,1.99H157l-1.69,1.22.65,1.98-1.69-1.23-1.69,1.23.65-1.98-1.69-1.23h2.09l.64-1.98Zm0-10.01.64,1.99H157l-1.69,1.22.65,1.99-1.69-1.23-1.69,1.23.65-1.99-1.69-1.22h2.09l.64-1.98h0Zm0-10.01.64,1.99H157l-1.69,1.22.65,1.99-1.69-1.23-1.69,1.23.65-1.99-1.69-1.22h2.09l.64-1.99Zm0-10.01.64,1.99H157l-1.69,1.22.65,1.99-1.69-1.23-1.69,1.23.65-1.99-1.69-1.22h2.09l.64-1.98h0Zm0-10.01.64,1.99H157l-1.69,1.22.65,1.99-1.69-1.23-1.69,1.23.65-1.99-1.69-1.22h2.09l.64-1.98h0Zm11.81,10.01.64,1.99h2.09l-1.69,1.22.65,1.99-1.69-1.23-1.69,1.23.65-1.99-1.69-1.22h2.09l.64-1.98h0Zm0-10.01.64,1.99h2.09l-1.69,1.22.65,1.99-1.69-1.23-1.69,1.23.65-1.99-1.69-1.22h2.09l.64-1.98h0Zm11.81,10.01.64,1.99h2.09l-1.69,1.22.65,1.99-1.69-1.23-1.69,1.23.65-1.99-1.69-1.22h2.09l.64-1.98h0Z" fill="#f4f4f4" fill-rule="evenodd"/></g><g clip-path="url(#b3b618b1-a335-4ae6-a669-9e725fa3feed)"><path d="M64.51,103.4h41.07v27.38L64.51,103.4Zm64.16,0h41.07l-41.07,27.38V103.4Zm58.36,11.53V134.6H157.51l29.52-19.68Zm0,50.47v19.68L157.51,165.4Zm-17.3,31.21H128.66v-27.38l41.07,27.38Zm-64.16,0H64.51l41.07-27.38v27.38h-.01Zm-58.36-11.53V165.4H76.73l-29.52,19.68Zm0-50.48v-19.68L76.73,134.6Z" fill="#0437a0" fill-rule="evenodd"/><polygon points="187.04 185.075 157.52 165.395 187.04 165.395 187.04 134.595 157.52 134.595 187.04 114.925 187.04 103.395 169.74 103.395 128.68 130.765 128.68 103.395 117.13 103.395 105.58 103.395 105.58 130.765 64.51 103.395 47.22 103.395 47.22 114.925 76.73 134.595 47.22 134.595 47.22 165.395 76.73 165.395 47.22 185.075 47.22 196.605 64.51 196.605 105.58 169.225 105.58 196.605 117.13 196.605 128.68 196.605 128.68 169.225 169.74 196.605 187.04 196.605 187.04 185.075 187.04 185.075" fill="#f4f4f4"/><path d="M124.34,103.4v36.99h62.7v19.23h-62.7v36.99H109.92v-36.99H47.22v-19.23h62.7V103.4Zm62.7,88.89-40.33-26.88H133.74l46.81,31.21h6.49v-4.33ZM146.71,134.6l40.33-26.88v-4.32h-6.49l-46.81,31.21h12.97Zm-46.2,0L53.7,103.4H47.21v4.32L87.54,134.6h12.97Zm-12.97,30.8-40.33,26.88v4.33H53.7l46.81-31.21Z" fill="#ff1612" fill-rule="evenodd"/></g></g></svg>